# xmcd
#
# Track frame offsets:
#	150
#	14639
#	26404
#	38604
#	51173
#	63396
#	76100
#	88537
#	97275
#	108562
#	120931
#	131344
#	141951
#	152007
#	163913
#	173040
#	185251
#	195715
#	209739
#	220545
#
# Disc length: 3175 seconds
#
# Revision: 1
# Processed by: cddbd v1.5.2PL0 Copyright (c) Steve Scherf et al.
# Submitted via: EasyCDDAExtractor 12.0.1.1
#
DISCID=110c6514
DTITLE=Various Artist - The Ultimate Ballroom Album 9 CD1
DYEAR=2006
DGENRE=Dance
TTITLE0=Dean Martin and H. O'Donnell - SF 29 - How Do You Like Your Eggs In The 
TTITLE0=Morning
TTITLE1=Dinah Shore - SF 29 - Takin' A Chance On Love
TTITLE2=Bobby Darin - SF 29 - On Broadway
TTITLE3=Nancy Wilson - SF 29 - You'd Be So Nice To Come Home To
TTITLE4=Henry Mancini Orchestra - SF 29 - Pink Panther
TTITLE5=Julie London - SF 29 - My Heart Belongs To Daddy
TTITLE6=Steve and Eydie - SF 29 - Side By Side
TTITLE7=Trudi Richards - SF 29 - Let's Do It
TTITLE8=Dean Martin - SF 29 - True Love
TTITLE9=Jo Stafford - SF 29 - Why Can't You Behave
TTITLE10=Lawrence and Gorme - QS 50 - Bei Mir Bist Du Schon
TTITLE11=Dean Martin - QS 50 - Choo 'N' Gum
TTITLE12=Rosemary Clooney - QS 50 - Oh What A Beautiful Morning
TTITLE13=S. Lawrence - QS 50 - There'll Be Some Changes Made
TTITLE14=Ted Heath Orchestra - QS 50 - Nice Work If You Can Get It
TTITLE15=Dinah Shore - QS 50 - Dear Hearts and Gentle People
TTITLE16=Buddy Greco - QS 50 - It Had Better Be Tonight
TTITLE17=Martha Titton - QS 50 - Blow Gabriel Blow
TTITLE18=Whitting and Martin - QS 50 - Don't Rock The Boat Dear
TTITLE19=Big Bad Voodoo Daddy - QS 50 - Mr Pin Stripe Suit
EXTD=
EXTT0=
EXTT1=
EXTT2=
EXTT3=
EXTT4=
EXTT5=
EXTT6=
EXTT7=
EXTT8=
EXTT9=
EXTT10=
EXTT11=
EXTT12=
EXTT13=
EXTT14=
EXTT15=
EXTT16=
EXTT17=
EXTT18=
EXTT19=
PLAYORDER=
